<?xml version="1.0"?>
<svg xmlns="http://www.w3.org/2000/svg" id="Layer_1" enable-background="new 0 0 256 256" height="512px" viewBox="0 0 256 256" width="512px" class=""><g><g><path d="m128 184.675c-1.381 0-2.5-1.119-2.5-2.5v-45.807c0-1.381 1.119-2.5 2.5-2.5s2.5 1.119 2.5 2.5v45.807c0 1.381-1.119 2.5-2.5 2.5z" fill="#ebe7f2" data-original="#EBE7F2" class=""/><g fill="#846f75"><path d="m220.092 65.326-36.354.003c-1.381 0-2.5 1.12-2.5 2.5 0 1.381 1.119 2.5 2.5 2.5l36.354-.003c4.23 0 7.672 3.441 7.672 7.671v106.066c0 4.23-3.441 7.672-7.672 7.672h-184.184c-4.23 0-7.672-3.441-7.672-7.672v-106.066c0-4.23 3.441-7.671 7.672-7.671h36.354c1.381 0 2.5-1.119 2.5-2.5s-1.119-2.5-2.5-2.5h-36.354c-6.987 0-12.672 5.685-12.672 12.671v106.066c0 6.987 5.685 12.672 12.672 12.672h184.184c6.987 0 12.672-5.685 12.672-12.672v-106.066c0-6.987-5.685-12.671-12.672-12.671z" data-original="#846F75" class="active-path" style="fill:#374957" data-old_color="#846F75"/><path d="m169.327 220.208h-24.59v-15.974c0-1.381-1.119-2.5-2.5-2.5s-2.5 1.119-2.5 2.5v15.974h-23.475v-15.974c0-1.381-1.119-2.5-2.5-2.5s-2.5 1.119-2.5 2.5v15.974h-24.59c-4.489 0-8.142 3.653-8.142 8.143s3.652 8.142 8.142 8.142h82.654c4.489 0 8.142-3.652 8.142-8.142s-3.652-8.143-8.141-8.143zm0 11.285h-82.654c-1.732 0-3.142-1.41-3.142-3.142 0-1.733 1.409-3.143 3.142-3.143h82.654c1.732 0 3.142 1.41 3.142 3.143 0 1.732-1.409 3.142-3.142 3.142z" data-original="#846F75" class="active-path" style="fill:#374957" data-old_color="#846F75"/></g><g fill="#ed9abc"><path d="m168.92 111.3-39.67-22.903c-.773-.446-1.727-.446-2.5 0l-39.67 22.903c-.773.447-1.25 1.272-1.25 2.165v45.807c0 .893.477 1.718 1.25 2.165l39.67 22.903c.387.223.818.335 1.25.335s.863-.112 1.25-.335l39.67-22.903c.773-.447 1.25-1.272 1.25-2.165v-45.807c0-.893-.477-1.718-1.25-2.165zm-40.92-17.852 34.67 20.017-34.67 20.017-34.67-20.017zm0 85.841-37.17-21.46v-40.034l35.92 20.739c.387.223.818.335 1.25.335s.863-.112 1.25-.335l35.92-20.739v40.034z" data-original="#ED9ABC" class="" style="fill:#2171D5" data-old_color="#ED9ABC"/><path d="m138.058 81.296c-1.381 0-2.5-1.119-2.5-2.5v-33.556c0-1.381 1.119-2.5 2.5-2.5h7.061l-17.199-17.198-17.197 17.198h7.062c1.381 0 2.5 1.119 2.5 2.5v33.556c0 1.381-1.119 2.5-2.5 2.5s-2.5-1.119-2.5-2.5v-31.056h-10.597c-1.011 0-1.923-.609-2.31-1.543s-.173-2.009.542-2.724l23.232-23.233c.938-.938 2.598-.938 3.535 0l23.233 23.233c.715.715.929 1.79.542 2.724-.387.935-1.299 1.543-2.31 1.543h-10.596v31.056c.002 1.381-1.118 2.5-2.498 2.5z" data-original="#ED9ABC" class="" style="fill:#2171D5" data-old_color="#ED9ABC"/><path d="m165.696 90.932c-1.381 0-2.5-1.119-2.5-2.5v-20.603c0-1.381 1.119-2.5 2.5-2.5h2.006l-8.229-8.229-8.229 8.229h2.006c1.381 0 2.5 1.119 2.5 2.5v20.603c0 1.381-1.119 2.5-2.5 2.5s-2.5-1.119-2.5-2.5v-18.103h-5.541c-1.011 0-1.923-.609-2.31-1.543s-.173-2.009.542-2.724l14.265-14.265c.938-.938 2.598-.938 3.535 0l14.266 14.265c.715.715.929 1.79.542 2.724-.387.935-1.299 1.543-2.31 1.543h-5.542v18.103c-.001 1.381-1.12 2.5-2.501 2.5z" data-original="#ED9ABC" class="" style="fill:#2171D5" data-old_color="#ED9ABC"/><path d="m102.751 90.932c-1.381 0-2.5-1.119-2.5-2.5v-20.603c0-1.381 1.119-2.5 2.5-2.5h2.006l-8.23-8.229-8.229 8.229h2.006c1.381 0 2.5 1.119 2.5 2.5v20.603c0 1.381-1.119 2.5-2.5 2.5s-2.5-1.119-2.5-2.5v-18.103h-5.542c-1.011 0-1.923-.609-2.31-1.543s-.173-2.009.542-2.724l14.266-14.266c.469-.469 1.104-.732 1.768-.732.663 0 1.299.263 1.768.732l14.265 14.265c.715.715.929 1.79.542 2.724-.387.935-1.299 1.543-2.31 1.543h-5.541v18.103c-.001 1.382-1.12 2.501-2.501 2.501z" data-original="#ED9ABC" class="" style="fill:#2171D5" data-old_color="#ED9ABC"/></g></g></g> </svg>
