<?xml version="1.0"?>
<svg xmlns="http://www.w3.org/2000/svg" xmlns:xlink="http://www.w3.org/1999/xlink" version="1.1" id="Capa_1" x="0px" y="0px" viewBox="0 0 490.667 490.667" style="enable-background:new 0 0 490.667 490.667;" xml:space="preserve" width="512px" height="512px" class=""><g><g>
	<path style="fill:#455A64;" d="M96,256H10.667C4.776,256,0,251.224,0,245.333c0-5.891,4.776-10.667,10.667-10.667H96   c5.891,0,10.667,4.776,10.667,10.667C106.667,251.224,101.891,256,96,256z" data-original="#455A64" class=""/>
	<path style="fill:#455A64;" d="M480,256h-85.333c-5.891,0-10.667-4.776-10.667-10.667c0-5.891,4.776-10.667,10.667-10.667H480   c5.891,0,10.667,4.776,10.667,10.667C490.667,251.224,485.891,256,480,256z" data-original="#455A64" class=""/>
	<path style="fill:#455A64;" d="M245.333,384c-5.891,0-10.667-4.776-10.667-10.667V10.667C234.667,4.776,239.442,0,245.333,0   C251.224,0,256,4.776,256,10.667v362.667C256,379.224,251.224,384,245.333,384z" data-original="#455A64" class=""/>
</g><path style="fill:#2171D5" d="M458.667,64c-69.781,0-92.757,89.813-114.987,176.661c-20.693,80.96-42.112,164.672-98.347,164.672  c-53.333,0-73.195-78.016-94.315-160.597C128.299,155.883,104.789,64,32,64c-5.891,0-10.667,4.776-10.667,10.667  S26.109,85.333,32,85.333c56.235,0,77.653,83.712,98.347,164.672c22.229,86.848,45.205,176.661,114.987,176.661  c72.789,0,96.299-91.883,119.019-180.736c21.12-82.581,40.981-160.597,94.315-160.597c5.891,0,10.667-4.776,10.667-10.667  S464.558,64,458.667,64z" data-original="#2196F3" class="active-path" data-old_color="#2196F3"/><g>
	<path style="fill:#455A64;" d="M245.333,490.667c-5.891,0-10.667-4.776-10.667-10.667v-21.333c0-5.891,4.776-10.667,10.667-10.667   c5.891,0,10.667,4.776,10.667,10.667V480C256,485.891,251.224,490.667,245.333,490.667z" data-original="#455A64" class=""/>
	<path style="fill:#455A64;" d="M309.333,256h-128c-5.891,0-10.667-4.776-10.667-10.667c0-5.891,4.776-10.667,10.667-10.667h128   c5.891,0,10.667,4.776,10.667,10.667C320,251.224,315.224,256,309.333,256z" data-original="#455A64" class=""/>
</g></g> </svg>
